{
    "asset" : {
        "generator" : "Khronos glTF Blender I/O v3.2.43",
        "version" : "2.0"
    },
    "scene" : 0,
    "scenes" : [
        {
            "name" : "Scene",
            "nodes" : [
                0
            ]
        }
    ],
    "nodes" : [
        {
            "mesh" : 0,
            "name" : "parkas",
            "scale" : [
                0.04000002145767212,
                0.04000002145767212,
                0.04000002145767212
            ]
        }
    ],
    "materials" : [
        {
            "doubleSided" : true,
            "name" : "Default OBJ.003",
            "pbrMetallicRoughness" : {
                "baseColorTexture" : {
                    "index" : 0
                },
                "metallicFactor" : 0,
                "roughnessFactor" : 0.5
            }
        }
    ],
    "meshes" : [
        {
            "name" : "parkas",
            "primitives" : [
                {
                    "attributes" : {
                        "POSITION" : 0,
                        "NORMAL" : 1,
                        "TEXCOORD_0" : 2
                    },
                    "indices" : 3,
                    "material" : 0
                }
            ]
        }
    ],
    "textures" : [
        {
            "sampler" : 0,
            "source" : 0
        }
    ],
    "images" : [
        {
            "bufferView" : 4,
            "mimeType" : "image/png",
            "name" : "Parkas"
        }
    ],
    "accessors" : [
        {
            "bufferView" : 0,
            "componentType" : 5126,
            "count" : 21490,
            "max" : [
                79.99334716796875,
                25.508071899414062,
                75.58090209960938
            ],
            "min" : [
                -88.90644836425781,
                -0.2419281005859375,
                -83.02250671386719
            ],
            "type" : "VEC3"
        },
        {
            "bufferView" : 1,
            "componentType" : 5126,
            "count" : 21490,
            "type" : "VEC3"
        },
        {
            "bufferView" : 2,
            "componentType" : 5126,
            "count" : 21490,
            "type" : "VEC2"
        },
        {
            "bufferView" : 3,
            "componentType" : 5123,
            "count" : 23268,
            "type" : "SCALAR"
        }
    ],
    "bufferViews" : [
        {
            "buffer" : 0,
            "byteLength" : 257880,
            "byteOffset" : 0
        },
        {
            "buffer" : 0,
            "byteLength" : 257880,
            "byteOffset" : 257880
        },
        {
            "buffer" : 0,
            "byteLength" : 171920,
            "byteOffset" : 515760
        },
        {
            "buffer" : 0,
            "byteLength" : 46536,
            "byteOffset" : 687680
        },
        {
            "buffer" : 0,
            "byteLength" : 2010432,
            "byteOffset" : 734216
        }
    ],
    "samplers" : [
        {
            "magFilter" : 9729,
            "minFilter" : 9987
        }
    ],
    "buffers" : [
        {
            "byteLength" : 2744648,
            "uri" : "data:application/octet-stream;base64,"
        }
    ]
}
